<svg version="1.1" viewBox="0 0 512 512" xmlns="http://www.w3.org/2000/svg" xmlns:xlink="http://www.w3.org/1999/xlink" id="Layer_1" overflow="hidden"><path d=" M 255.998 0 C 397.386 0 512 114.614 512 255.998 C 512 397.386 397.386 512 255.998 512 C 114.614 512 0 397.386 0 255.998 C 0 114.614 114.614 0 255.998 0 Z" fill="#DFF3FD"/><path d=" M 293.662 113.678 C 334.346 113.678 367.328 146.66 367.328 187.348 C 367.328 228.032 334.346 261.018 293.662 261.018 C 252.974 261.018 219.992 228.032 219.992 187.348 C 219.992 146.66 252.974 113.678 293.662 113.678 Z" fill="#FFEF76"/><path d=" M 0.425 270.597 C 24.449 251.105 65.484 222.983 95.766 229.374 C 141.223 238.972 176.069 292.008 210.412 286.448 C 244.755 280.893 286.677 213.719 317.484 220.288 C 348.291 226.852 395.768 285.434 425.566 280.893 C 455.364 276.348 461.933 204.121 499.807 189.983 C 500.922 189.567 502.018 189.216 503.101 188.928 C 508.893 210.307 512 232.787 512 255.997 C 512 299.714 501.032 340.868 481.713 376.865 C 406.065 389.286 147.619 414.748 49.043 406.677 C 20.895 368.081 3.275 321.317 0.425 270.597 Z" fill="#66B96A"/><g><path d=" M 384.111 303.186 C 364.569 298.554 344.99 293.232 325.356 289.847 C 318.307 288.467 311.209 287.389 304.037 286.841 C 299.574 286.503 295.111 286.375 290.657 286.421 C 286.199 286.375 281.74 286.503 277.277 286.841 C 270.105 287.389 263.006 288.467 255.953 289.847 C 236.324 293.232 216.745 298.554 197.202 303.186 C 193.082 303.88 188.943 304.456 184.777 304.863 C 123.441 310.802 62.31 279.747 1.632 284.864 C 9.256 352.806 43.462 412.698 93.611 453.907 C 109.828 458.74 126.707 462.038 144.084 463.633 L 145.071 463.724 C 146.629 463.852 148.196 463.984 149.762 464.094 L 151.836 464.226 C 153.174 464.317 154.504 464.386 155.847 464.459 C 156.706 464.5 157.578 464.509 158.446 464.559 C 159.647 464.591 160.835 464.646 162.037 464.682 C 163.421 464.705 164.805 464.714 166.194 464.723 C 166.87 464.741 167.56 464.75 168.231 464.75 L 168.532 464.745 C 170.492 464.745 172.456 464.713 174.393 464.681 L 175.329 464.658 C 177.179 464.599 179.011 464.53 180.843 464.443 L 182.405 464.374 C 184.031 464.278 185.671 464.173 187.293 464.054 L 189.591 463.876 C 190.66 463.785 191.711 463.693 192.766 463.593 C 227.881 460.318 260.973 450.08 290.656 434.288 C 320.34 450.08 353.431 460.317 388.546 463.593 C 389.601 463.693 390.652 463.785 391.721 463.876 L 394.019 464.054 C 395.641 464.173 397.281 464.278 398.907 464.374 L 400.469 464.443 C 401.78 464.507 403.096 464.557 404.416 464.607 C 460.595 424.563 499.899 362.386 509.634 290.813 C 472.052 298.131 434.333 308.519 396.536 304.86 C 392.37 304.456 388.231 303.881 384.111 303.186 Z" fill="#B1E3FB"/><path d=" M 490.041 359.859 C 447.923 351.545 405.686 335.858 363.116 339.097 C 331.76 341.486 301.921 354.08 270.616 357.118 C 204.543 363.518 138.707 326.973 73.419 338.969 C 55.658 342.235 37.55 349.046 19.579 354.332 C 58.129 446.909 149.455 512 255.998 512 C 360.407 512 450.207 449.49 490.041 359.859 Z" fill="#7FD3F9"/><path d=" M 97.877 437.722 C 97.877 437.722 170.908 438.517 272.169 406.389 C 318.54 391.675 365.866 377.866 414.471 380.195 C 434.877 381.168 455.178 384.092 475.296 388.144 C 430.473 462.367 349.037 512 255.998 512 C 196.32 512 141.411 491.576 97.877 457.338 L 97.877 437.722 Z" fill="#429F46"/><path d=" M 433.584 440.372 C 401.013 438.526 317.371 431.546 238.082 406.39 C 191.711 391.676 144.385 377.867 95.78 380.196 C 75.904 381.146 56.129 383.942 36.522 387.834 C 81.303 462.23 162.835 512 255.998 512 C 324.967 512 387.555 484.719 433.584 440.372 Z" fill="#66B96A"/><path d=" M 417.691 454.469 C 366.688 447.978 315.529 439.641 265.769 433.341 C 229.809 428.791 193.241 425.648 157.409 431.148 C 133.997 434.743 111.385 441.947 89.093 450.101 C 133.91 488.675 192.231 512 255.998 512 C 317.325 512 373.609 490.425 417.691 454.469 Z" fill="#388D3C"/><path d=" M 126.126 108.607 C 126.126 108.607 131.918 107.364 136.765 108.292 C 141.621 109.219 146.682 113.248 152.16 113.564 C 157.633 113.87 156.495 111.805 156.495 111.805 C 156.495 111.805 152.982 112.321 152.05 109.329 C 151.127 106.332 154.946 103.952 160.83 99.827 C 166.723 95.693 167.86 91.559 166.723 88.973 C 166.723 88.973 165.686 90.627 160.83 93.212 C 155.979 95.798 152.47 100.548 148.647 103.952 C 144.823 107.364 144.618 107.565 141 106.844 C 137.391 106.122 129.639 104.989 126.126 108.607 Z"/><path d=" M 167.289 124.518 C 167.289 124.518 173.077 123.275 177.928 124.203 C 182.784 125.13 187.845 129.159 193.323 129.475 C 198.796 129.781 197.658 127.716 197.658 127.716 C 197.658 127.716 194.145 128.232 193.213 125.24 C 192.29 122.243 196.109 119.863 201.993 115.738 C 207.886 111.604 209.023 107.47 207.886 104.884 C 207.886 104.884 206.849 106.538 201.993 109.123 C 197.142 111.709 193.629 116.459 189.81 119.863 C 185.986 123.275 185.776 123.476 182.163 122.755 C 178.55 122.034 170.802 120.9 167.289 124.518 Z"/><path d=" M 172.954 91.276 C 172.954 91.276 178.746 90.033 183.593 90.965 C 188.453 91.892 193.51 95.921 198.988 96.232 C 204.465 96.543 203.323 94.473 203.323 94.473 C 203.323 94.473 199.815 94.994 198.883 91.997 C 197.956 89 201.775 86.62 207.663 82.495 C 213.551 78.365 214.689 74.231 213.551 71.646 C 213.551 71.646 212.519 73.3 207.663 75.885 C 202.807 78.466 199.299 83.221 195.48 86.62 C 191.656 90.032 191.446 90.238 187.833 89.516 C 184.22 88.794 176.471 87.658 172.954 91.276 Z"/><path d=" M 132.718 70.623 C 132.718 70.623 138.51 69.38 143.357 70.312 C 148.213 71.239 153.274 75.268 158.752 75.579 C 164.225 75.89 163.087 73.82 163.087 73.82 C 163.087 73.82 159.579 74.341 158.642 71.344 C 157.719 68.347 161.538 65.967 167.422 61.842 C 173.315 57.712 174.452 53.578 173.315 50.993 C 173.315 50.993 172.278 52.647 167.422 55.232 C 162.571 57.813 159.062 62.568 155.239 65.967 C 151.415 69.379 151.21 69.585 147.597 68.863 C 143.983 68.143 136.231 67.01 132.718 70.623 Z"/><path d=" M 112.271 145.874 C 112.271 145.874 118.063 144.636 122.91 145.563 C 127.766 146.49 132.827 150.519 138.305 150.835 C 143.778 151.141 142.64 149.072 142.64 149.072 C 142.64 149.072 139.127 149.593 138.195 146.596 C 137.272 143.604 141.091 141.224 146.975 137.094 C 152.868 132.964 154.005 128.83 152.868 126.245 C 152.868 126.245 151.831 127.899 146.975 130.484 C 142.124 133.065 138.611 137.82 134.792 141.224 C 130.968 144.636 130.758 144.837 127.145 144.116 C 123.531 143.393 115.784 142.261 112.271 145.874 Z"/><path d=" M 88.864 110.22 C 88.864 110.22 94.652 108.977 99.499 109.905 C 104.359 110.832 109.421 114.866 114.898 115.177 C 120.371 115.483 119.233 113.418 119.233 113.418 C 119.233 113.418 115.72 113.934 114.788 110.942 C 113.861 107.945 117.684 105.565 123.568 101.44 C 129.461 97.306 130.594 93.172 129.461 90.586 C 129.461 90.586 128.424 92.24 123.568 94.825 C 118.712 97.411 115.204 102.161 111.385 105.565 C 107.561 108.977 107.351 109.178 103.738 108.457 C 100.125 107.736 92.377 106.602 88.864 110.22 Z"/><path d=" M 351.083 156.81 C 351.083 156.81 356.875 155.572 361.722 156.499 C 366.578 157.426 371.639 161.455 377.117 161.766 C 382.59 162.077 381.452 160.007 381.452 160.007 C 381.452 160.007 377.939 160.528 377.007 157.531 C 376.084 154.534 379.903 152.154 385.787 148.029 C 391.68 143.899 392.817 139.765 391.68 137.18 C 391.68 137.18 390.643 138.834 385.787 141.419 C 380.936 144 377.427 148.755 373.604 152.154 C 369.78 155.571 369.575 155.772 365.957 155.05 C 362.348 154.33 354.596 153.197 351.083 156.81 Z"/><path d=" M 392.247 172.721 C 392.247 172.721 398.039 171.478 402.886 172.41 C 407.742 173.337 412.803 177.366 418.281 177.677 C 423.754 177.988 422.616 175.918 422.616 175.918 C 422.616 175.918 419.103 176.439 418.171 173.442 C 417.248 170.445 421.067 168.065 426.951 163.94 C 432.844 159.81 433.981 155.676 432.844 153.091 C 432.844 153.091 431.807 154.745 426.951 157.33 C 422.1 159.911 418.587 164.666 414.768 168.065 C 410.944 171.477 410.734 171.683 407.121 170.961 C 403.507 170.24 395.759 169.107 392.247 172.721 Z"/><path d=" M 397.911 139.483 C 397.911 139.483 403.703 138.24 408.55 139.168 C 413.41 140.1 418.467 144.129 423.945 144.44 C 429.422 144.746 428.28 142.681 428.28 142.681 C 428.28 142.681 424.772 143.202 423.84 140.205 C 422.913 137.208 426.736 134.828 432.62 130.703 C 438.508 126.569 439.646 122.439 438.508 119.854 C 438.508 119.854 437.476 121.508 432.62 124.089 C 427.764 126.675 424.256 131.425 420.437 134.829 C 416.613 138.241 416.403 138.447 412.79 137.725 C 409.176 136.998 401.429 135.865 397.911 139.483 Z"/><path d=" M 357.675 118.831 C 357.675 118.831 363.467 117.588 368.314 118.516 C 373.17 119.448 378.231 123.477 383.709 123.788 C 389.182 124.094 388.044 122.029 388.044 122.029 C 388.044 122.029 384.536 122.55 383.599 119.553 C 382.676 116.556 386.495 114.176 392.379 110.051 C 398.272 105.917 399.409 101.787 398.272 99.202 C 398.272 99.202 397.24 100.856 392.379 103.437 C 387.528 106.023 384.019 110.773 380.196 114.177 C 376.372 117.589 376.167 117.795 372.554 117.073 C 368.94 116.346 361.188 115.213 357.675 118.831 Z"/><path d=" M 337.228 194.081 C 337.228 194.081 343.02 192.838 347.867 193.766 C 352.723 194.698 357.784 198.727 363.262 199.038 C 368.735 199.344 367.597 197.279 367.597 197.279 C 367.597 197.279 364.084 197.8 363.152 194.803 C 362.229 191.806 366.048 189.426 371.932 185.301 C 377.825 181.171 378.962 177.037 377.825 174.452 C 377.825 174.452 376.788 176.106 371.932 178.691 C 367.081 181.272 363.568 186.027 359.749 189.426 C 355.925 192.838 355.715 193.044 352.102 192.322 C 348.489 191.601 340.741 190.463 337.228 194.081 Z"/><path d=" M 313.821 158.423 C 313.821 158.423 319.609 157.185 324.456 158.112 C 329.316 159.039 334.378 163.068 339.855 163.379 C 345.328 163.69 344.19 161.62 344.19 161.62 C 344.19 161.62 340.677 162.141 339.745 159.144 C 338.818 156.147 342.641 153.767 348.525 149.642 C 354.418 145.512 355.551 141.378 354.418 138.793 C 354.418 138.793 353.381 140.447 348.525 143.032 C 343.669 145.613 340.161 150.368 336.342 153.767 C 332.518 157.184 332.308 157.385 328.695 156.663 C 325.081 155.942 317.334 154.809 313.821 158.423 Z"/></g><path d=" M 98.365 307.732 C 131.626 307.732 158.591 308.86 158.591 310.254 C 158.591 311.652 131.625 312.78 98.365 312.78 C 65.1 312.78 38.134 311.652 38.134 310.254 C 38.135 308.86 65.1 307.732 98.365 307.732 Z M 388.898 350.16 C 412.191 350.16 431.071 351.626 431.071 353.44 C 431.071 355.254 412.191 356.724 388.898 356.724 C 365.61 356.724 346.725 355.253 346.725 353.44 C 346.725 351.627 365.61 350.16 388.898 350.16 Z M 268.948 378.949 C 291.821 378.949 310.363 380.192 310.363 381.722 C 310.363 383.257 291.821 384.499 268.948 384.499 C 246.075 384.499 227.533 383.256 227.533 381.722 C 227.534 380.191 246.076 378.949 268.948 378.949 Z M 131.589 357.227 C 163.118 357.227 188.677 358.269 188.677 359.543 C 188.677 360.822 163.118 361.859 131.589 361.859 C 100.06 361.859 74.501 360.822 74.501 359.543 C 74.502 358.269 100.06 357.227 131.589 357.227 Z M 178.796 331.472 C 211.846 331.472 238.643 333.053 238.643 335.008 C 238.643 336.959 211.846 338.539 178.796 338.539 C 145.741 338.539 118.944 336.958 118.944 335.008 C 118.945 333.053 145.741 331.472 178.796 331.472 Z M 432.081 316.822 C 458.859 316.822 480.567 318.521 480.567 320.609 C 480.567 322.701 458.859 324.401 432.081 324.401 C 405.307 324.401 383.595 322.702 383.595 320.609 C 383.595 318.522 405.307 316.822 432.081 316.822 Z M 257.839 317.832 C 288.802 317.832 313.899 318.851 313.899 320.107 C 313.899 321.359 288.802 322.377 257.839 322.377 C 226.876 322.377 201.774 321.358 201.774 320.107 C 201.774 318.851 226.876 317.832 257.839 317.832 Z" fill="#DFF3FD"/><path d=" M 380.607 32.342 C 374.545 43.447 355.473 51.556 332.87 51.556 C 323.62 51.556 314.958 50.199 307.54 47.833 C 299.116 56.17 282.689 61.83 263.809 61.83 C 242.75 61.83 224.742 54.786 217.488 44.841 C 210.421 46.91 202.313 48.094 193.697 48.094 C 168.846 48.094 148.253 38.291 144.544 25.477 C 178.239 9.155 216.049 0 255.998 0 C 301.236 0 343.724 11.754 380.607 32.342 Z" fill="#F3FBF9"/><g></g><g></g><g></g><g></g><g></g><g></g><g></g><g></g><g></g><g></g><g></g><g></g><g></g><g></g><g></g></svg>